<svg xmlns="http://www.w3.org/2000/svg" xmlns:xlink="http://www.w3.org/1999/xlink" width="330" zoomAndPan="magnify" viewBox="0 0 247.5 30.000001" height="40" preserveAspectRatio="xMidYMid meet" version="1.0"><defs><g/><clipPath id="ec92477f06"><path d="M 74 1.8125 L 100 1.8125 L 100 27.207031 L 74 27.207031 Z M 74 1.8125 " clip-rule="nonzero"/></clipPath></defs><g clip-path="url(#ec92477f06)"><path fill="#ffffff" d="M 86.898438 27.214844 C 86.660156 27.214844 86.421875 27.121094 86.242188 26.941406 L 77.636719 18.335938 C 73.886719 14.585938 73.808594 8.476562 77.46875 4.722656 C 79.273438 2.871094 81.695312 1.835938 84.292969 1.816406 C 86.890625 1.804688 89.328125 2.785156 91.160156 4.605469 L 91.789062 5.230469 C 92.511719 4.757812 93.359375 4.5 94.246094 4.5 C 95.445312 4.5 96.574219 4.96875 97.421875 5.816406 C 100.527344 8.921875 100.527344 13.96875 97.421875 17.070312 L 87.554688 26.941406 C 87.375 27.121094 87.136719 27.214844 86.898438 27.214844 Z M 84.375 3.671875 C 84.351562 3.671875 84.328125 3.671875 84.308594 3.671875 C 82.210938 3.691406 80.253906 4.523438 78.800781 6.015625 C 75.84375 9.046875 75.914062 13.988281 78.949219 17.023438 L 86.898438 24.972656 L 96.109375 15.757812 C 98.488281 13.378906 98.488281 9.507812 96.109375 7.128906 C 95.613281 6.632812 94.949219 6.359375 94.246094 6.359375 C 93.839844 6.359375 93.445312 6.449219 93.089844 6.625 C 94.144531 8.003906 94.714844 9.679688 94.714844 11.445312 C 94.714844 13.570312 93.886719 15.570312 92.382812 17.074219 L 87.554688 21.902344 C 87.191406 22.265625 86.605469 22.265625 86.242188 21.902344 L 80.140625 15.800781 C 77.796875 13.457031 77.722656 9.625 79.972656 7.261719 C 81.101562 6.074219 82.632812 5.40625 84.277344 5.378906 C 85.921875 5.363281 87.472656 5.976562 88.636719 7.125 C 88.949219 7.4375 89.449219 7.4375 89.757812 7.128906 L 90.40625 6.476562 L 89.851562 5.921875 C 88.386719 4.472656 86.445312 3.671875 84.375 3.671875 Z M 84.371094 7.238281 C 84.351562 7.238281 84.328125 7.238281 84.304688 7.238281 C 83.164062 7.253906 82.101562 7.71875 81.316406 8.539062 C 79.753906 10.183594 79.816406 12.847656 81.453125 14.488281 L 86.898438 19.933594 L 91.070312 15.761719 C 93.226562 13.605469 93.429688 10.222656 91.675781 7.835938 L 91.074219 8.441406 C 90.042969 9.472656 88.363281 9.472656 87.332031 8.445312 C 86.539062 7.664062 85.492188 7.238281 84.371094 7.238281 Z M 84.371094 7.238281 " fill-opacity="1" fill-rule="nonzero"/></g><g fill="#ffffff" fill-opacity="1"><g transform="translate(105.520206, 19.244952)"><g><path d="M 2.15625 0 C 1.851562 0 1.617188 -0.0820312 1.453125 -0.25 C 1.285156 -0.414062 1.203125 -0.648438 1.203125 -0.953125 L 1.203125 -10.1875 C 1.203125 -10.488281 1.289062 -10.726562 1.46875 -10.90625 C 1.65625 -11.09375 1.898438 -11.1875 2.203125 -11.1875 C 2.523438 -11.1875 2.773438 -11.09375 2.953125 -10.90625 C 3.140625 -10.726562 3.234375 -10.488281 3.234375 -10.1875 L 3.234375 -1.671875 L 7.65625 -1.671875 C 8.289062 -1.671875 8.609375 -1.390625 8.609375 -0.828125 C 8.609375 -0.273438 8.289062 0 7.65625 0 Z M 2.15625 0 "/></g></g></g><g fill="#ffffff" fill-opacity="1"><g transform="translate(113.953262, 19.244952)"><g><path d="M 4.546875 0.125 C 3.753906 0.125 3.0625 -0.0351562 2.46875 -0.359375 C 1.875 -0.679688 1.410156 -1.148438 1.078125 -1.765625 C 0.753906 -2.378906 0.59375 -3.085938 0.59375 -3.890625 C 0.59375 -4.703125 0.753906 -5.410156 1.078125 -6.015625 C 1.410156 -6.617188 1.875 -7.082031 2.46875 -7.40625 C 3.0625 -7.738281 3.753906 -7.90625 4.546875 -7.90625 C 5.328125 -7.90625 6.015625 -7.738281 6.609375 -7.40625 C 7.203125 -7.082031 7.660156 -6.617188 7.984375 -6.015625 C 8.304688 -5.410156 8.46875 -4.703125 8.46875 -3.890625 C 8.46875 -3.085938 8.304688 -2.378906 7.984375 -1.765625 C 7.660156 -1.148438 7.203125 -0.679688 6.609375 -0.359375 C 6.015625 -0.0351562 5.328125 0.125 4.546875 0.125 Z M 4.53125 -1.40625 C 5.164062 -1.40625 5.648438 -1.613281 5.984375 -2.03125 C 6.328125 -2.457031 6.5 -3.078125 6.5 -3.890625 C 6.5 -4.703125 6.328125 -5.320312 5.984375 -5.75 C 5.648438 -6.175781 5.171875 -6.390625 4.546875 -6.390625 C 3.910156 -6.390625 3.421875 -6.175781 3.078125 -5.75 C 2.734375 -5.320312 2.5625 -4.703125 2.5625 -3.890625 C 2.5625 -3.078125 2.726562 -2.457031 3.0625 -2.03125 C 3.40625 -1.613281 3.894531 -1.40625 4.53125 -1.40625 Z M 4.53125 -1.40625 "/></g></g></g><g fill="#ffffff" fill-opacity="1"><g transform="translate(122.701574, 19.244952)"><g><path d="M 6.40625 -7.296875 C 6.488281 -7.484375 6.597656 -7.625 6.734375 -7.71875 C 6.878906 -7.8125 7.035156 -7.859375 7.203125 -7.859375 C 7.441406 -7.859375 7.660156 -7.773438 7.859375 -7.609375 C 8.054688 -7.453125 8.15625 -7.253906 8.15625 -7.015625 C 8.15625 -6.890625 8.125 -6.765625 8.0625 -6.640625 L 5.140625 -0.53125 C 5.046875 -0.332031 4.910156 -0.179688 4.734375 -0.078125 C 4.566406 0.0234375 4.375 0.078125 4.15625 0.078125 C 3.957031 0.078125 3.765625 0.0234375 3.578125 -0.078125 C 3.398438 -0.179688 3.265625 -0.332031 3.171875 -0.53125 L 0.234375 -6.640625 C 0.179688 -6.742188 0.15625 -6.863281 0.15625 -7 C 0.15625 -7.238281 0.253906 -7.441406 0.453125 -7.609375 C 0.660156 -7.773438 0.898438 -7.859375 1.171875 -7.859375 C 1.546875 -7.859375 1.820312 -7.675781 2 -7.3125 L 4.203125 -2.4375 Z M 6.40625 -7.296875 "/></g></g></g><g fill="#ffffff" fill-opacity="1"><g transform="translate(130.67751, 19.244952)"><g><path d="M 7.125 -2.109375 C 7.300781 -2.109375 7.441406 -2.039062 7.546875 -1.90625 C 7.660156 -1.769531 7.71875 -1.585938 7.71875 -1.359375 C 7.71875 -1.023438 7.523438 -0.75 7.140625 -0.53125 C 6.785156 -0.332031 6.378906 -0.171875 5.921875 -0.046875 C 5.472656 0.0664062 5.046875 0.125 4.640625 0.125 C 3.398438 0.125 2.414062 -0.226562 1.6875 -0.9375 C 0.957031 -1.65625 0.59375 -2.632812 0.59375 -3.875 C 0.59375 -4.664062 0.75 -5.363281 1.0625 -5.96875 C 1.382812 -6.582031 1.832031 -7.054688 2.40625 -7.390625 C 2.976562 -7.734375 3.625 -7.90625 4.34375 -7.90625 C 5.039062 -7.90625 5.644531 -7.75 6.15625 -7.4375 C 6.675781 -7.132812 7.078125 -6.703125 7.359375 -6.140625 C 7.640625 -5.585938 7.78125 -4.929688 7.78125 -4.171875 C 7.78125 -3.722656 7.582031 -3.5 7.1875 -3.5 L 2.53125 -3.5 C 2.601562 -2.769531 2.8125 -2.234375 3.15625 -1.890625 C 3.5 -1.554688 4.003906 -1.390625 4.671875 -1.390625 C 5.003906 -1.390625 5.296875 -1.429688 5.546875 -1.515625 C 5.804688 -1.597656 6.101562 -1.710938 6.4375 -1.859375 C 6.75 -2.023438 6.976562 -2.109375 7.125 -2.109375 Z M 4.40625 -6.515625 C 3.863281 -6.515625 3.429688 -6.34375 3.109375 -6 C 2.796875 -5.664062 2.601562 -5.1875 2.53125 -4.5625 L 6.09375 -4.5625 C 6.070312 -5.195312 5.914062 -5.679688 5.625 -6.015625 C 5.332031 -6.347656 4.925781 -6.515625 4.40625 -6.515625 Z M 4.40625 -6.515625 "/></g></g></g><g fill="#ffffff" fill-opacity="1"><g transform="translate(138.732258, 19.244952)"><g><path d="M 2.15625 0 C 1.851562 0 1.617188 -0.0820312 1.453125 -0.25 C 1.285156 -0.414062 1.203125 -0.648438 1.203125 -0.953125 L 1.203125 -10.1875 C 1.203125 -10.488281 1.289062 -10.726562 1.46875 -10.90625 C 1.65625 -11.09375 1.898438 -11.1875 2.203125 -11.1875 C 2.523438 -11.1875 2.773438 -11.09375 2.953125 -10.90625 C 3.140625 -10.726562 3.234375 -10.488281 3.234375 -10.1875 L 3.234375 -1.671875 L 7.65625 -1.671875 C 8.289062 -1.671875 8.609375 -1.390625 8.609375 -0.828125 C 8.609375 -0.273438 8.289062 0 7.65625 0 Z M 2.15625 0 "/></g></g></g><g fill="#ffffff" fill-opacity="1"><g transform="translate(147.165313, 19.244952)"><g><path d="M 2 0.09375 C 1.71875 0.09375 1.484375 0.015625 1.296875 -0.140625 C 1.117188 -0.304688 1.03125 -0.539062 1.03125 -0.84375 L 1.03125 -6.9375 C 1.03125 -7.238281 1.117188 -7.46875 1.296875 -7.625 C 1.484375 -7.78125 1.71875 -7.859375 2 -7.859375 C 2.28125 -7.859375 2.515625 -7.78125 2.703125 -7.625 C 2.898438 -7.46875 3 -7.238281 3 -6.9375 L 3 -0.84375 C 3 -0.539062 2.898438 -0.304688 2.703125 -0.140625 C 2.515625 0.015625 2.28125 0.09375 2 0.09375 Z M 2 -9.265625 C 1.632812 -9.265625 1.347656 -9.363281 1.140625 -9.5625 C 0.929688 -9.757812 0.828125 -10.015625 0.828125 -10.328125 C 0.828125 -10.640625 0.929688 -10.890625 1.140625 -11.078125 C 1.347656 -11.265625 1.632812 -11.359375 2 -11.359375 C 2.34375 -11.359375 2.617188 -11.265625 2.828125 -11.078125 C 3.046875 -10.890625 3.15625 -10.640625 3.15625 -10.328125 C 3.15625 -10.015625 3.050781 -9.757812 2.84375 -9.5625 C 2.632812 -9.363281 2.351562 -9.265625 2 -9.265625 Z M 2 -9.265625 "/></g></g></g><g fill="#ffffff" fill-opacity="1"><g transform="translate(150.853787, 19.244952)"><g><path d="M 5.5 -7.90625 C 6.425781 -7.90625 7.113281 -7.640625 7.5625 -7.109375 C 8.019531 -6.585938 8.25 -5.796875 8.25 -4.734375 L 8.25 -0.84375 C 8.25 -0.550781 8.160156 -0.320312 7.984375 -0.15625 C 7.804688 0.0078125 7.566406 0.09375 7.265625 0.09375 C 6.960938 0.09375 6.722656 0.0078125 6.546875 -0.15625 C 6.367188 -0.320312 6.28125 -0.550781 6.28125 -0.84375 L 6.28125 -4.625 C 6.28125 -5.21875 6.164062 -5.648438 5.9375 -5.921875 C 5.707031 -6.203125 5.351562 -6.34375 4.875 -6.34375 C 4.300781 -6.34375 3.84375 -6.160156 3.5 -5.796875 C 3.164062 -5.441406 3 -4.960938 3 -4.359375 L 3 -0.84375 C 3 -0.550781 2.90625 -0.320312 2.71875 -0.15625 C 2.539062 0.0078125 2.300781 0.09375 2 0.09375 C 1.695312 0.09375 1.457031 0.0078125 1.28125 -0.15625 C 1.113281 -0.320312 1.03125 -0.550781 1.03125 -0.84375 L 1.03125 -6.953125 C 1.03125 -7.222656 1.117188 -7.441406 1.296875 -7.609375 C 1.472656 -7.773438 1.710938 -7.859375 2.015625 -7.859375 C 2.285156 -7.859375 2.507812 -7.773438 2.6875 -7.609375 C 2.863281 -7.453125 2.953125 -7.242188 2.953125 -6.984375 L 2.953125 -6.5625 C 3.210938 -6.988281 3.5625 -7.316406 4 -7.546875 C 4.445312 -7.785156 4.945312 -7.90625 5.5 -7.90625 Z M 5.5 -7.90625 "/></g></g></g><g fill="#ffffff" fill-opacity="1"><g transform="translate(159.759723, 19.244952)"><g><path d="M 7.890625 -1.53125 C 8.097656 -1.332031 8.203125 -1.101562 8.203125 -0.84375 C 8.203125 -0.601562 8.113281 -0.390625 7.9375 -0.203125 C 7.757812 -0.015625 7.554688 0.078125 7.328125 0.078125 C 7.097656 0.078125 6.882812 -0.015625 6.6875 -0.203125 L 3 -3.546875 L 3 -0.84375 C 3 -0.539062 2.898438 -0.3125 2.703125 -0.15625 C 2.515625 0 2.28125 0.078125 2 0.078125 C 1.71875 0.078125 1.484375 0 1.296875 -0.15625 C 1.117188 -0.3125 1.03125 -0.539062 1.03125 -0.84375 L 1.03125 -10.265625 C 1.03125 -10.566406 1.117188 -10.796875 1.296875 -10.953125 C 1.484375 -11.109375 1.71875 -11.1875 2 -11.1875 C 2.28125 -11.1875 2.515625 -11.109375 2.703125 -10.953125 C 2.898438 -10.796875 3 -10.566406 3 -10.265625 L 3 -4.328125 L 6.375 -7.5625 C 6.5625 -7.75 6.773438 -7.84375 7.015625 -7.84375 C 7.253906 -7.84375 7.460938 -7.753906 7.640625 -7.578125 C 7.828125 -7.398438 7.921875 -7.191406 7.921875 -6.953125 C 7.921875 -6.710938 7.816406 -6.492188 7.609375 -6.296875 L 5.140625 -3.984375 Z M 7.890625 -1.53125 "/></g></g></g></svg>